<svg xmlns="http://www.w3.org/2000/svg"  viewBox="0 0 48 48" width="48px" height="48px" baseProfile="basic"><path d="M41,8H7C6.447,8,6,8.448,6,9v32c0,1.654,1.346,3,3,3h30c1.654,0,3-1.346,3-3V9C42,8.448,41.553,8,41,8z"/><path fill="#fff" d="M39,41H9c-1.105,0-2-0.895-2-2V7h34v32C41,40.105,40.105,41,39,41z"/><path d="M39,42H9c-1.654,0-3-1.346-3-3V7c0-0.553,0.448-1,1-1h34c0.552,0,1,0.447,1,1v32C42,40.654,40.654,42,39,42z M8,8v31	c0,0.552,0.449,1,1,1h30c0.551,0,1-0.448,1-1V8H8z"/><path d="M34.146,16.229L36,14.375V14h-6.636l-4.92,11.791L19.26,14H12v0.375l1.884,2.261c0.075,0.09,0.116,0.203,0.116,0.32v12.286	c0,0.183-0.063,0.36-0.177,0.502l-2.323,2.88V33h7v-0.375l-2.325-2.906C16.062,29.577,16,29.401,16,29.219V18.725L22.365,33h1.26	L29,20.083v10.085c0,0.133-0.053,0.26-0.146,0.353l-2.104,2.104V33H36v-0.375l-1.854-1.854C34.053,30.678,34,30.551,34,30.418	V16.582C34,16.449,34.053,16.322,34.146,16.229z"/></svg>